<svg xmlns="http://www.w3.org/2000/svg" viewBox="0 0 220 140" role="img" aria-label="Banco BrasilZ">
  <defs>
    <linearGradient id="bill" x1="0" x2="1" y1="0" y2="1">
      <stop offset="0" stop-color="#4ade80"/>
      <stop offset="1" stop-color="#167c46"/>
    </linearGradient>
    <linearGradient id="gold" x1="0" x2="1">
      <stop offset="0" stop-color="#f4c65d"/>
      <stop offset="1" stop-color="#a66a18"/>
    </linearGradient>
  </defs>
  <rect x="18" y="34" width="150" height="82" rx="8" fill="#10161d" stroke="#2a3140" stroke-width="4"/>
  <rect x="30" y="44" width="150" height="82" rx="8" fill="url(#bill)" stroke="#b6ffd1" stroke-opacity=".35" stroke-width="3"/>
  <circle cx="105" cy="85" r="24" fill="#0b3c23" opacity=".45"/>
  <path d="M101 66h10v9c7 2 12 7 12 14 0 8-6 13-13 15v8h-10v-8c-8-2-13-8-14-16h12c1 3 3 5 7 5 4 0 6-2 6-5 0-4-4-5-9-7-7-3-15-6-15-15 0-7 5-12 14-14v-8Z" fill="#eaffef"/>
  <rect x="44" y="57" width="28" height="6" rx="3" fill="#eaffef" opacity=".75"/>
  <rect x="44" y="104" width="44" height="6" rx="3" fill="#eaffef" opacity=".55"/>
  <circle cx="181" cy="43" r="20" fill="url(#gold)" stroke="#ffe4a2" stroke-width="3"/>
  <circle cx="181" cy="43" r="10" fill="none" stroke="#5b3510" stroke-width="3" opacity=".55"/>
  <path d="M157 111c12 9 31 10 46 0" fill="none" stroke="#d6262d" stroke-width="6" stroke-linecap="round"/>
</svg>
